<svg xmlns="http://www.w3.org/2000/svg" viewBox="0 0 100 100">
  <rect width="100" height="100" rx="22" fill="#030712" />
  <circle cx="50" cy="50" r="38" fill="#1E3A8A" />
  <g fill="#4ADE80" transform="translate(2.5, 2.5)">
    <rect x="20" y="25" width="25" height="5" />
    <rect x="20" y="30" width="20" height="5" />
    <rect x="25" y="35" width="15" height="5" />
    <rect x="25" y="40" width="10" height="5" />
    <rect x="30" y="45" width="15" height="5" />
    <rect x="35" y="50" width="10" height="5" />
    <rect x="35" y="55" width="10" height="5" />
    <rect x="40" y="60" width="5" height="10" />
    <rect x="55" y="25" width="15" height="5" />
    <rect x="50" y="30" width="25" height="5" />
    <rect x="55" y="35" width="15" height="5" />
    <rect x="50" y="40" width="20" height="5" />
    <rect x="45" y="45" width="20" height="5" />
    <rect x="50" y="50" width="15" height="5" />
    <rect x="55" y="55" width="10" height="5" />
    <rect x="60" y="60" width="5" height="5" />
  </g>
</svg>
